<svg width="37" height="31" viewBox="0 0 37 31" fill="none" xmlns="http://www.w3.org/2000/svg">
<path fill-rule="evenodd" clip-rule="evenodd" d="M8.89721 14.6257C9.47619 15.9695 9.97247 17.3132 10.4274 18.6569C11.4199 17.3972 12.4125 16.1794 13.405 14.9617C18.0782 9.54483 27.6728 -0.407033 35.2823 0.0128767C37.5569 0.13885 37.4742 0.852697 35.6132 1.7765C27.3833 5.76564 20.5182 16.5573 15.7623 24.2417C14.563 26.1733 12.8674 29.5326 10.9237 30.5823C9.68297 31.2542 8.02873 31.0862 6.87077 30.2884C4.6789 28.8607 2.03212 21.6802 0.501946 18.9088C-0.656022 16.5573 0.25381 13.7019 2.56974 12.4842C4.88568 11.3504 7.73924 12.2742 8.89721 14.6257Z" fill="url(#paint0_linear)"/>
<defs>
<linearGradient id="paint0_linear" x1="0.0167909" y1="15.3953" x2="37.0192" y2="15.3953" gradientUnits="userSpaceOnUse">
<stop offset="0.0231316" stop-color="#F1BA46"/>
<stop offset="0.5042" stop-color="#F0CF64"/>
<stop offset="1" stop-color="#DB9638"/>
</linearGradient>
</defs>
</svg>
