<svg width="104" height="122" viewBox="0 0 104 122" fill="none" xmlns="http://www.w3.org/2000/svg">
<path d="M50.9999 68.7777C60.2047 68.7777 67.6666 61.3157 67.6666 52.111C67.6666 42.9063 60.2047 35.4443 50.9999 35.4443C41.7952 35.4443 34.3333 42.9063 34.3333 52.111C34.3333 61.3157 41.7952 68.7777 50.9999 68.7777Z" fill="#F1BF46"/>
<path d="M58.9071 59.9639C59.3162 59.6154 59.3643 59.004 59.0138 58.5966C58.6633 58.1899 58.0482 58.1421 57.6392 58.4905C56.8233 59.1823 55.894 59.7186 54.8995 60.0832C53.9073 60.4464 52.8491 60.6372 51.7708 60.6372C49.2735 60.6372 47.0118 59.6309 45.3749 58.0036C43.7379 56.377 42.7256 54.1286 42.7256 51.6453C42.7256 49.1626 43.7379 46.9143 45.3749 45.287C47.0111 43.6596 49.2728 42.6533 51.7708 42.6533C52.8513 42.6533 53.9117 42.8441 54.9055 43.2088C55.9014 43.5742 56.8314 44.1127 57.6488 44.8074C58.0579 45.1558 58.6737 45.108 59.0242 44.7013C59.3747 44.2947 59.3265 43.6825 58.9175 43.334C57.92 42.4861 56.7877 41.8297 55.5783 41.3862C54.3667 40.942 53.0788 40.7092 51.7716 40.7092C48.734 40.7092 45.984 41.9336 43.9936 43.9123C42.0031 45.891 40.7715 48.6256 40.7715 51.6453C40.7715 54.6649 42.0031 57.3995 43.9936 59.3782C45.984 61.3569 48.7348 62.5813 51.7716 62.5813C53.0766 62.5813 54.363 62.3492 55.5731 61.9065C56.7788 61.4638 57.9097 60.8088 58.9071 59.9639Z" fill="#414042" stroke="#414042" stroke-miterlimit="10" stroke-linecap="square"/>
<path d="M39.3083 48.6924C38.768 48.6924 38.3308 49.1278 38.3308 49.6648C38.3308 50.2018 38.7688 50.6365 39.3083 50.6365H52.4826C53.0228 50.6365 53.4608 50.2011 53.4608 49.6648C53.4608 49.1285 53.0228 48.6924 52.4826 48.6924H39.3083Z" fill="#414042" stroke="#414042" stroke-miterlimit="10" stroke-linecap="square"/>
<path d="M39.3083 53.3005C38.768 53.3005 38.3308 53.7359 38.3308 54.273C38.3308 54.81 38.7688 55.2446 39.3083 55.2446H52.4826C53.0228 55.2446 53.4608 54.8093 53.4608 54.273C53.4608 53.7359 53.0228 53.3005 52.4826 53.3005H39.3083Z" fill="#414042" stroke="#414042" stroke-miterlimit="10" stroke-linecap="square"/>
<path d="M60.6606 103.118H41.3468C39.5907 103.118 37.8752 102.624 36.3855 101.69C36.0106 101.455 35.8971 100.961 36.1321 100.586C36.3669 100.211 36.8617 100.098 37.2364 100.333C38.4707 101.106 39.8919 101.515 41.3468 101.515H60.6606C64.954 101.515 68.4468 98.0193 68.4468 93.7221V79.864C68.4468 79.6001 68.5768 79.3528 68.7945 79.2033C77.37 73.3167 82.49 63.6037 82.49 53.2212C82.49 35.8575 68.364 21.731 51.0002 21.731C33.6365 21.731 19.5105 35.8575 19.5105 53.2212C19.5105 63.6053 24.6328 73.3183 33.213 79.2033C33.4309 79.3526 33.5609 79.5996 33.5609 79.864V89.077C33.5609 89.5195 33.2023 89.8782 32.7598 89.8782C32.3173 89.8782 31.9586 89.5195 31.9586 89.077V80.2827C23.1526 74.0767 17.9082 63.9925 17.9082 53.2212C17.9082 34.9738 32.7531 20.1287 51.0002 20.1287C69.2474 20.1287 84.0923 34.9738 84.0923 53.2212C84.0923 63.9907 78.8506 74.0748 70.0491 80.2824V93.7218C70.0491 98.9027 65.8371 103.118 60.6606 103.118Z" stroke="#414042" stroke-width="1.8" stroke-miterlimit="10" stroke-linecap="square"/>
<path d="M71.3428 18.8592C71.2068 18.8592 71.0693 18.8247 70.943 18.7518C70.5598 18.5304 70.4284 18.0406 70.6498 17.6574L75.6762 8.95125C75.8974 8.5683 76.3874 8.43664 76.7706 8.65803C77.1538 8.87941 77.2852 9.36919 77.0638 9.75241L72.0374 18.4586C71.8889 18.7155 71.6197 18.8592 71.3428 18.8592Z" stroke="#414042" stroke-width="1.8" stroke-miterlimit="10" stroke-linecap="square"/>
<path d="M86.2309 33.7531C85.9539 33.7531 85.6847 33.6094 85.5363 33.3525C85.3149 32.9693 85.4463 32.4793 85.8295 32.2581L94.5349 27.232C94.9186 27.0111 95.4081 27.1425 95.6292 27.5252C95.8506 27.9084 95.7192 28.3984 95.336 28.6196L86.6306 33.6457C86.5043 33.7184 86.3665 33.7531 86.2309 33.7531Z" stroke="#414042" stroke-width="1.8" stroke-miterlimit="10" stroke-linecap="square"/>
<path d="M101.732 54.0894H91.6862C91.2437 54.0894 90.885 53.7307 90.885 53.2882C90.885 52.8457 91.2437 52.4871 91.6862 52.4871H101.732C102.174 52.4871 102.533 52.8457 102.533 53.2882C102.533 53.7307 102.174 54.0894 101.732 54.0894Z" stroke="#414042" stroke-width="1.8" stroke-miterlimit="10" stroke-linecap="square"/>
<path d="M32.1905 18.8592C31.9133 18.8592 31.6441 18.7153 31.4956 18.4581L26.4766 9.75196C26.2555 9.36847 26.3874 8.8787 26.7706 8.65758C27.1541 8.43646 27.6436 8.56812 27.865 8.9516L32.884 17.6578C33.1051 18.0413 32.9732 18.531 32.59 18.7522C32.4637 18.8248 32.3261 18.8592 32.1905 18.8592Z" stroke="#414042" stroke-width="1.8" stroke-miterlimit="10" stroke-linecap="square"/>
<path d="M17.3017 33.7531C17.1658 33.7531 17.0283 33.7187 16.9019 33.6458L8.19631 28.6196C7.81309 28.3982 7.68197 27.9084 7.90308 27.5252C8.12447 27.1423 8.61451 27.0106 8.99746 27.232L17.7031 32.2582C18.0863 32.4796 18.2174 32.9694 17.9963 33.3526C17.8478 33.6095 17.5787 33.7531 17.3017 33.7531Z" stroke="#414042" stroke-width="1.8" stroke-miterlimit="10" stroke-linecap="square"/>
<path d="M11.8541 54.0894H1.80116C1.35865 54.0894 1 53.7307 1 53.2882C1 52.8457 1.35865 52.4871 1.80116 52.4871H11.8543C12.2968 52.4871 12.6555 52.8457 12.6555 53.2882C12.6555 53.7307 12.2966 54.0894 11.8541 54.0894Z" stroke="#414042" stroke-width="1.8" stroke-miterlimit="10" stroke-linecap="square"/>
<path d="M50.9414 11.1675C50.9376 11.1675 50.9339 11.1675 50.9302 11.1675C50.4877 11.1616 50.1341 10.7979 50.1402 10.3553L50.2583 1.79045C50.2641 1.34795 50.63 0.984487 51.0704 1.00051C51.5129 1.00639 51.8664 1.37011 51.8603 1.81262L51.7423 10.3775C51.7361 10.816 51.3785 11.1675 50.9414 11.1675Z" stroke="#414042" stroke-width="1.8" stroke-miterlimit="10" stroke-linecap="square"/>
<path d="M62.3783 121H39.6218C39.1557 121 38.7778 120.669 38.7778 120.26V113.962C38.7778 113.553 39.1557 113.222 39.6218 113.222H62.3783C62.8444 113.222 63.2223 113.553 63.2223 113.962V120.26C63.2223 120.669 62.8444 121 62.3783 121ZM40.4658 119.52H61.5343V114.702H40.4658V119.52Z" stroke="#414042" stroke-width="1.8" stroke-miterlimit="10" stroke-linecap="square"/>
<path d="M50.9999 76.0238C38.198 76.0238 27.783 65.6088 27.783 52.8068C27.783 42.8725 34.0945 34.0413 43.4888 30.8319C43.9081 30.6888 44.3629 30.9126 44.506 31.331C44.6492 31.7498 44.4257 32.2051 44.0069 32.3482C35.2615 35.336 29.3855 43.558 29.3855 52.8068C29.3855 64.7251 39.0819 74.4215 51.0002 74.4215C62.9225 74.4215 72.6218 64.7251 72.6218 52.8068C72.6218 40.8886 62.9225 31.1922 51.0002 31.1922C50.5577 31.1922 50.1991 30.8335 50.1991 30.391C50.1991 29.9485 50.5577 29.5898 51.0002 29.5898C63.8062 29.5898 74.2241 40.0049 74.2241 52.8068C74.2241 65.6088 63.8059 76.0238 50.9999 76.0238Z" stroke="#414042" stroke-width="1.8" stroke-miterlimit="10" stroke-linecap="square"/>
<path d="M59.1951 103.117H42.8053C42.3628 103.117 42.0042 102.759 42.0042 102.316V86.3859C42.0042 85.9434 42.3628 85.5847 42.8053 85.5847C43.2478 85.5847 43.6065 85.9434 43.6065 86.3859V101.515H58.3939V86.3859C58.3939 85.9434 58.7526 85.5847 59.1951 85.5847C59.6376 85.5847 59.9963 85.9434 59.9963 86.3859V102.316C59.9963 102.759 59.6379 103.117 59.1951 103.117Z" stroke="#414042" stroke-width="1.8" stroke-miterlimit="10" stroke-linecap="square"/>
<path d="M66.0337 109.269H35.1344C34.6919 109.269 34.3333 108.91 34.3333 108.468C34.3333 108.025 34.6919 107.667 35.1344 107.667H66.0337C66.4762 107.667 66.8348 108.025 66.8348 108.468C66.8348 108.91 66.4762 109.269 66.0337 109.269Z" stroke="#414042" stroke-width="1.8" stroke-miterlimit="10" stroke-linecap="square"/>
</svg>
