<svg width="127" height="117" viewBox="0 0 127 117" fill="none" xmlns="http://www.w3.org/2000/svg">
<path d="M77.1101 104.56H125.093V49.2859V28.4131L98.4356 2H51.7534V13.596" stroke="#414042" stroke-width="3.2"/>
<path d="M96.8752 3.15967V30.217H124.052" fill="#F1BF46"/>
<path d="M96.8752 3.15967V30.217H124.052" stroke="#414042" stroke-width="3.2"/>
<path d="M62.2864 25.0632H85.0423" stroke="#414042" stroke-width="3.2"/>
<path d="M61.8962 38.9783H110.139" stroke="#414042" stroke-width="3.2"/>
<path d="M61.8962 50.9609H110.139" stroke="#414042" stroke-width="3.2"/>
<path d="M61.8962 62.8145H110.139" stroke="#414042" stroke-width="3.2"/>
<path d="M61.8962 74.6682H109.749" stroke="#414042" stroke-width="3.2"/>
<path d="M95.1848 85.3623H109.749" stroke="#414042" stroke-width="3.2"/>
<path d="M55.0403 78.9477L55.0403 78.9478L55.0492 78.9505L70.2623 83.4598C75.7284 85.0972 79.4109 90.0065 79.4109 95.6703V114.224C79.4109 115.344 78.3775 116.372 77.2402 116.372C76.0925 116.372 75.0696 115.463 75.0696 114.224V95.6703C75.0696 91.9269 72.6387 88.7193 69.0026 87.6518C69.0026 87.6518 69.0026 87.6518 69.0026 87.6518L53.6634 83.1437C52.8763 82.8837 52.1502 82.6401 51.5498 82.1642L51.3689 82.0208L51.1839 82.159L42.7379 88.4678C42.7369 88.4686 42.7359 88.4693 42.7348 88.47C41.8719 89.0798 40.7629 89.4434 39.7904 89.4434C38.6918 89.4434 37.712 89.0821 36.846 88.47C36.845 88.4693 36.8439 88.4686 36.8429 88.4678L28.3969 82.159L28.2364 82.039L28.0641 82.1414C27.4283 82.5194 26.6698 82.8947 25.9169 83.1438L10.7083 87.6518C7.0722 88.7193 4.64129 91.9269 4.64129 95.6703V114.224C4.64129 115.354 3.7277 116.372 2.47065 116.372C1.32297 116.372 0.3 115.463 0.3 114.224V95.6703C0.3 90.0065 3.98244 85.0972 9.44854 83.4598L24.7911 78.9507L24.7919 78.9504C26.2135 78.5278 27.087 77.3845 27.087 75.9571V70.5456V70.3878L26.957 70.2984C20.6641 65.9719 16.4242 58.4612 16.4242 50.1882V46.0652V45.9896L16.3884 45.923L15.3481 43.9903L15.3482 43.9903L15.3448 43.9844C14.2055 41.9774 13.6935 39.5829 13.6935 37.1749V29.7019C13.6935 19.8203 21.8788 11.706 31.8583 11.706H63.9767C65.1244 11.706 66.1474 12.6152 66.1474 13.8541V37.3037C66.1474 39.5674 65.5126 41.9689 64.4892 44.1259L63.4525 46.0518L63.4167 46.1184V46.194V50.8324C63.4167 57.3188 60.7216 63.4247 55.9695 67.8787L55.9695 67.8786L55.9636 67.8845C55.2798 68.562 54.4494 69.162 53.6207 69.7609C53.3706 69.9416 53.1207 70.1222 52.8749 70.3048L52.7539 70.3948V70.5456V75.9571C52.7539 77.3984 53.7709 78.5284 55.0403 78.9477ZM39.9205 85.0185H40.0201L40.1 84.9589L48.5522 78.6455L48.7263 78.5154L48.657 78.3095C48.4076 77.5681 48.2826 76.8274 48.2826 75.9571V72.9937V72.5721L47.8843 72.7102C45.312 73.6023 42.6145 74.111 39.7904 74.111H39.7874H39.7843H39.7813H39.7782H39.7752H39.7721H39.7691H39.766H39.763H39.7599H39.7569H39.7538H39.7508H39.7477H39.7447H39.7417H39.7386H39.7356H39.7325H39.7295H39.7264H39.7234H39.7203H39.7173H39.7142H39.7112H39.7081H39.7051H39.702H39.699H39.6959H39.6929H39.6898H39.6868H39.6838H39.6807H39.6777H39.6746H39.6716H39.6685H39.6655H39.6624H39.6594H39.6563H39.6533H39.6502H39.6472H39.6441H39.6411H39.638H39.635H39.6319H39.6289H39.6258H39.6228H39.6197H39.6167H39.6137H39.6106H39.6076H39.6045H39.6015H39.5984H39.5954H39.5923H39.5893H39.5862H39.5832H39.5801H39.5771H39.574H39.571H39.5679H39.5649H39.5618H39.5588H39.5557H39.5527H39.5497H39.5466H39.5436H39.5405H39.5375H39.5344H39.5314H39.5283H39.5253H39.5222H39.5192H39.5161H39.5131H39.51H39.507H39.5039H39.5009H39.4978H39.4948H39.4917H39.4887H39.4856H39.4826H39.4796H39.4765H39.4735H39.4704H39.4674H39.4643H39.4613H39.4582H39.4552H39.4521H39.4491H39.446H39.443H39.4399H39.4369H39.4338H39.4308H39.4277H39.4247H39.4216H39.4186H39.4156H39.4125H39.4095H39.4064H39.4034H39.4003H39.3973H39.3942H39.3912H39.3881H39.3851H39.382H39.379H39.3759H39.3729H39.3698H39.3668H39.3637H39.3607H39.3576H39.3546H39.3516H39.3485H39.3455H39.3424H39.3394H39.3363H39.3333H39.3302H39.3272H39.3241H39.3211H39.318H39.315H39.3119H39.3089H39.3058H39.3028H39.2997H39.2967H39.2936H39.2906H39.2876H39.2845H39.2815H39.2784H39.2754H39.2723H39.2693H39.2662H39.2632H39.2601H39.2571H39.254H39.251H39.2479H39.2449H39.2418H39.2388H39.2357H39.2327H39.2296H39.2266H39.2235H39.2205H39.2175H39.2144H39.2114H39.2083H39.2053H39.2022H39.1992H39.1961H39.1931H39.19H39.187H39.1839H39.1809H39.1778H39.1748H39.1717H39.1687H39.1656H39.1626H39.1595H39.1565H39.1535H39.1504H39.1474H39.1443H39.1413H39.1382H39.1352H39.1321H39.1291H39.126H39.123H39.1199H39.1169H39.1138H39.1108H39.1077H39.1047H39.1016H39.0986H39.0955H39.0925H39.0895H39.0864H39.0834H39.0803H39.0773H39.0742H39.0712H39.0681H39.0651H39.062H39.059H39.0559H39.0529H39.0498H39.0468H39.0437H39.0407H39.0376H39.0346H39.0315H39.0285H39.0255H39.0224H39.0194H39.0163H39.0133H39.0102H39.0072H39.0041H39.0011H38.998H38.995H38.9919H38.9889H38.9858H38.9828H38.9797H38.9767H38.9736H38.9706H38.9675H38.9645H38.9614H38.9584H38.9554H38.9523H38.9493H38.9462H38.9432H38.9401H38.9371H38.934H38.931H38.9279H38.9249H38.9218H38.9188H38.9157H38.9127H38.9096H38.9066H38.9035H38.9005H38.8974H38.8944H38.8914H38.8883H38.8853H38.8822H38.8792H38.8761H38.8731H38.87H38.867H38.8639H38.8609H38.8578H38.8548H38.8517H38.8487H38.8456H38.8426H38.8395H38.8365H38.8334H38.8304H38.8274H38.8243H38.8213H38.8182H38.8152H38.8121H38.8091H38.806H38.803H38.7999H38.7969H38.7938H38.7908H38.7877H38.7847H38.7816H38.7786H38.7755H38.7725H38.7694H38.7664H38.7634H38.7603H38.7573H38.7542H38.7512H38.7481H38.7451H38.742H38.739H38.7359H38.7329H38.7298H38.7268H38.7237H38.7207H38.7176H38.7146H38.7115H38.7085H38.7054H38.7024H38.6993H38.6963H38.6933H38.6902H38.6872H38.6841H38.6811H38.678H38.675H38.6719H38.6689H38.6658H38.6628H38.6597H38.6567H38.6536H38.6506H38.6475H38.6445H38.6414H38.6384H38.6353H38.6323H38.6293H38.6262H38.6232H38.6201H38.6171H38.614H38.611H38.6079H38.6049H38.6018H38.5988H38.5957H38.5927H38.5896H38.5866H38.5835H38.5805H38.5774H38.5744H38.5713H38.5683H38.5653H38.5622H38.5592H38.5561H38.5531H38.55H38.547H38.5439H38.5409H38.5378H38.5348H38.5317H38.5287H38.5256H38.5226H38.5195H38.5165H38.5134H38.5104H38.5073H38.5043H38.5013H38.4982H38.4952H38.4921H38.4891H38.486H38.483H38.4799H38.4769H38.4738H38.4708H38.4677H38.4647H38.4616H38.4586H38.4555H38.4525H38.4494H38.4464H38.4433H38.4403H38.4372H38.4342H38.4312H38.4281H38.4251H38.422H38.419H38.4159H38.4129H38.4098H38.4068H38.4037H38.4007H38.3976H38.3946H38.3915H38.3885H38.3854H38.3824H38.3793H38.3763H38.3732H38.3702H38.3672H38.3641H38.3611H38.358H38.355H38.3519H38.3489H38.3458H38.3428H38.3397H38.3367H38.3336H38.3306H38.3275H38.3245H38.3214H38.3184H38.3153H38.3123H38.3092H38.3062H38.3032H38.3001H38.2971H38.294H38.291H38.2879H38.2849H38.2818H38.2788H38.2757H38.2727H38.2696H38.2666H38.2635H38.2605H38.2574H38.2544H38.2513H38.2483H38.2452H38.2422H38.2392H38.2383C35.9346 73.9832 33.7565 73.4756 31.7028 72.7125L31.2983 72.5622V72.9937V75.9571C31.2983 76.8274 31.1733 77.5681 30.9238 78.3095L30.8545 78.5154L31.0286 78.6455L39.4809 84.9589L39.5607 85.0185H39.6604H39.6611H39.6619H39.6627H39.6634H39.6642H39.665H39.6657H39.6665H39.6672H39.668H39.6688H39.6695H39.6703H39.671H39.6718H39.6726H39.6733H39.6741H39.6749H39.6756H39.6764H39.6771H39.6779H39.6787H39.6794H39.6802H39.6809H39.6817H39.6825H39.6832H39.684H39.6847H39.6855H39.6862H39.687H39.6878H39.6885H39.6893H39.69H39.6908H39.6916H39.6923H39.6931H39.6938H39.6946H39.6953H39.6961H39.6968H39.6976H39.6984H39.6991H39.6999H39.7006H39.7014H39.7021H39.7029H39.7036H39.7044H39.7051H39.7059H39.7066H39.7074H39.7081H39.7089H39.7096H39.7104H39.7111H39.7119H39.7126H39.7134H39.7141H39.7149H39.7156H39.7164H39.7171H39.7179H39.7186H39.7194H39.7201H39.7208H39.7216H39.7223H39.7231H39.7238H39.7245H39.7253H39.726H39.7268H39.7275H39.7282H39.729H39.7297H39.7305H39.7312H39.7319H39.7327H39.7334H39.7341H39.7349H39.7356H39.7363H39.7371H39.7378H39.7385H39.7393H39.74H39.7407H39.7414H39.7422H39.7429H39.7436H39.7444H39.7451H39.7458H39.7465H39.7473H39.748H39.7487H39.7494H39.7501H39.7509H39.7516H39.7523H39.753H39.7537H39.7544H39.7552H39.7559H39.7566H39.7573H39.758H39.7587H39.7594H39.7601H39.7609H39.7616H39.7623H39.763H39.7637H39.7644H39.7651H39.7658H39.7665H39.7672H39.7679H39.7686H39.7693H39.77H39.7707H39.7714H39.7721H39.7728H39.7735H39.7742H39.7749H39.7756H39.7763H39.7769H39.7776H39.7783H39.779H39.7797H39.7804H39.7811H39.7817H39.7824H39.7831H39.7838H39.7845H39.7851H39.7858H39.7865H39.7872H39.7879H39.7885H39.7892H39.7899H39.7905H39.7912H39.7919H39.7925H39.7932H39.7939H39.7945H39.7952H39.7959H39.7965H39.7972H39.7978H39.7985H39.7992H39.7998H39.8005H39.8011H39.8018H39.8024H39.8031H39.8037H39.8044H39.805H39.8057H39.8063H39.8069H39.8076H39.8082H39.8089H39.8095H39.8101H39.8108H39.8114H39.812H39.8127H39.8133H39.8139H39.8146H39.8152H39.8158H39.8164H39.8171H39.8177H39.8183H39.8189H39.8195H39.8202H39.8208H39.8214H39.822H39.8226H39.8232H39.8238H39.8244H39.8251H39.8257H39.8263H39.8269H39.8275H39.8281H39.8287H39.8293H39.8298H39.8304H39.831H39.8316H39.8322H39.8328H39.8334H39.834H39.8346H39.8351H39.8357H39.8363H39.8369H39.8375H39.838H39.8386H39.8392H39.8398H39.8403H39.8409H39.8415H39.842H39.8426H39.8431H39.8437H39.8443H39.8448H39.8454H39.8459H39.8465H39.847H39.8476H39.8481H39.8487H39.8492H39.8498H39.8503H39.8508H39.8514H39.8519H39.8525H39.853H39.8535H39.854H39.8546H39.8551H39.8556H39.8562H39.8567H39.8572H39.8577H39.8582H39.8587H39.8593H39.8598H39.8603H39.8608H39.8613H39.8618H39.8623H39.8628H39.8633H39.8638H39.8643H39.8648H39.8653H39.8658H39.8663H39.8667H39.8672H39.8677H39.8682H39.8687H39.8692H39.8696H39.8701H39.8706H39.871H39.8715H39.872H39.8725H39.8729H39.8734H39.8738H39.8743H39.8747H39.8752H39.8757H39.8761H39.8766H39.877H39.8774H39.8779H39.8783H39.8788H39.8792H39.8796H39.8801H39.8805H39.8809H39.8814H39.8818H39.8822H39.8826H39.883H39.8835H39.8839H39.8843H39.8847H39.8851H39.8855H39.8859H39.8863H39.8867H39.8871H39.8875H39.8879H39.8883H39.8887H39.8891H39.8895H39.8899H39.8902H39.8906H39.891H39.8914H39.8917H39.8921H39.8925H39.8929H39.8932H39.8936H39.8939H39.8943H39.8947H39.895H39.8954H39.8957H39.8961H39.8964H39.8968H39.8971H39.8974H39.8978H39.8981H39.8984H39.8988H39.8991H39.8994H39.8997H39.9001H39.9004H39.9007H39.901H39.9013H39.9016H39.9019H39.9022H39.9025H39.9028H39.9031H39.9034H39.9037H39.904H39.9043H39.9046H39.9049H39.9052H39.9054H39.9057H39.906H39.9063H39.9065H39.9068H39.9071H39.9073H39.9076H39.9079H39.9081H39.9084H39.9086H39.9089H39.9091H39.9093H39.9096H39.9098H39.9101H39.9103H39.9105H39.9108H39.911H39.9112H39.9114H39.9116H39.9119H39.9121H39.9123H39.9125H39.9127H39.9129H39.9131H39.9133H39.9135H39.9137H39.9139H39.9141H39.9142H39.9144H39.9146H39.9148H39.915H39.9151H39.9153H39.9155H39.9156H39.9158H39.916H39.9161H39.9163H39.9164H39.9166H39.9167H39.9169H39.917H39.9171H39.9173H39.9174H39.9175H39.9177H39.9178H39.9179H39.918H39.9181H39.9182H39.9184H39.9185H39.9186H39.9187H39.9188H39.9189H39.919H39.9191H39.9191H39.9192H39.9193H39.9194H39.9195H39.9195H39.9196H39.9197H39.9197H39.9198H39.9199H39.9199H39.92H39.9201H39.9202H39.9203H39.9203H39.9205ZM38.6006 69.8142V69.8143L38.6053 69.8145C43.8797 70.0758 49.0318 68.3775 52.8672 64.8393L52.8675 64.839C56.8306 61.1739 58.9454 56.1977 58.9454 50.9613V45.6786C58.9454 45.3565 59.052 45.0247 59.1819 44.638L60.4686 42.2157C60.4689 42.215 60.4693 42.2143 60.4697 42.2137C61.2762 40.7476 61.6761 39.0226 61.6761 37.3037V16.4309V16.1309H61.3761H31.8583C24.2833 16.1309 18.0348 22.3184 18.0348 29.8308V37.3037C18.0348 39.0292 18.4375 40.6213 19.2373 42.2061L19.2372 42.2062L19.2402 42.2117L20.5289 44.638C20.6589 45.0247 20.7655 45.3565 20.7655 45.6786V50.1882C20.7655 60.5159 28.5513 69.1591 38.6006 69.8142Z" fill="#414042" stroke="#F5F5F5" stroke-width="0.6"/>
<path d="M41.9624 95.7715L41.9611 95.7851V95.7989V114.352C41.9611 115.473 40.9277 116.501 39.7905 116.501C38.6428 116.501 37.6198 115.591 37.6198 114.352V95.7989C37.6198 94.6684 38.5334 93.6508 39.7905 93.6508C41.0862 93.6508 42.0727 94.5691 41.9624 95.7715Z" fill="#414042" stroke="#F5F5F5" stroke-width="0.6"/>
<path d="M13.6936 101.081C13.6936 99.9508 14.6071 98.9333 15.8642 98.9333C17.0119 98.9333 18.0348 99.8425 18.0348 101.081V114.352C18.0348 115.472 17.0015 116.5 15.8642 116.5C14.7165 116.5 13.6936 115.591 13.6936 114.352V101.081Z" fill="#414042" stroke="#F5F5F5" stroke-width="0.6"/>
<path d="M61.676 101.081C61.676 99.9508 62.5896 98.9333 63.8466 98.9333C65.1139 98.9333 66.0173 99.8323 66.0173 101.081V114.352C66.0173 115.472 64.9839 116.5 63.8466 116.5C62.6989 116.5 61.676 115.591 61.676 114.352V101.081Z" fill="#414042" stroke="#F5F5F5" stroke-width="0.6"/>
<path d="M28.7954 36.6257L28.5676 36.6822V36.9169V40.2669C28.5676 41.387 27.5342 42.4149 26.3969 42.4149C25.2492 42.4149 24.2263 41.5057 24.2263 40.2669V34.9842C24.2263 34.0905 24.7868 33.2956 25.7161 32.9481C26.1279 32.8124 30.4421 31.4151 36.0843 31.1125C41.7552 30.8083 48.7266 31.612 54.433 35.8675C55.4908 36.6841 55.6762 38.0193 54.7933 38.8942L54.7721 38.9151L54.7555 38.9398C54.0857 39.9353 52.598 40.0692 51.673 39.3823C47.8334 36.4964 43.1472 35.5548 38.9196 35.4574C34.6897 35.3599 30.8903 36.1068 28.7954 36.6257Z" fill="#414042" stroke="#F5F5F5" stroke-width="0.6"/>
</svg>
