<svg width="144" height="130" viewBox="0 0 144 130" fill="none" xmlns="http://www.w3.org/2000/svg">
<mask id="path-1-inside-1" fill="white">
<path d="M97.479 104.007H106.112C106.968 104.007 107.667 104.708 107.667 105.562V109.945C107.667 110.801 106.968 111.5 106.112 111.5H97.479C96.623 111.5 95.9239 110.801 95.9239 109.945V105.562C95.9239 104.708 96.623 104.007 97.479 104.007ZM130.835 77.6576L83.306 90.3936L87.9122 107.585V92.8109V92.7534V92.6975L87.9153 92.64L87.9169 92.5841L87.9247 92.4707L87.9293 92.4147C88.0241 91.349 88.4995 90.3874 89.2157 89.6712L89.2529 89.6339L89.2918 89.5982L89.3306 89.5609L89.3695 89.5251L89.4099 89.4894L89.4502 89.4537L89.4906 89.4195L89.531 89.3853L89.573 89.3512L89.6149 89.317L89.6569 89.2844L89.6988 89.2533L89.7423 89.2207L89.7858 89.1896L89.8293 89.1585L89.8728 89.129L89.9179 89.0995L89.9629 89.07L90.053 89.0125C90.0996 88.9845 90.1462 88.9581 90.1928 88.9317L90.2394 88.9053L90.2876 88.8804L90.3342 88.8556L90.4305 88.8074L90.4802 88.7841L90.5284 88.7624L90.5781 88.7391L90.6278 88.7189L90.6775 88.6971L90.7785 88.6583C91.2694 88.4703 91.7992 88.3678 92.3554 88.3678H133.705L130.835 77.6576ZM81.7182 84.4668L129.246 71.7308L128.746 69.8619C128.603 69.3259 128.056 69.0121 127.518 69.155L81.9233 81.3721C81.4137 81.5088 81.0471 82.0883 81.218 82.5994L81.7182 84.4668ZM137.265 88.3678H139.557C141.997 88.3678 144 90.3718 144 92.8109V124.624C144 127.073 142.005 129.068 139.557 129.068H92.3554C89.9179 129.068 87.9122 127.064 87.9122 124.624V119.377C87.5223 118.889 87.2364 118.351 87.0718 117.739L77.895 83.4881C77.1415 81.2277 78.782 78.655 81.0362 78.0491L126.631 65.8335C128.985 65.2028 131.438 66.6212 132.069 68.9748L137.265 88.3678ZM92.3554 91.812C92.2995 91.812 92.2451 91.8166 92.1923 91.8244L92.1425 91.8353L92.0835 91.8493L92.0478 91.8601L92.026 91.8695L92.0136 91.8726L91.9918 91.8819L91.9794 91.8865L91.9685 91.8912L91.9468 91.9005L91.9359 91.9052L91.9126 91.9161L91.9033 91.9223L91.8815 91.9331L91.8707 91.9394L91.8598 91.9456L91.8505 91.9518L91.8396 91.958L91.8287 91.9642L91.8194 91.9704L91.8085 91.9766L91.7992 91.9844L91.7883 91.9906L91.779 91.9984L91.7697 92.0046L91.7604 92.0124L91.7495 92.0186L91.7402 92.0264L91.7309 92.0341L91.7215 92.0419L91.7122 92.0497L91.7029 92.0574L91.6951 92.0652L91.6858 92.073L91.6765 92.0807L91.6672 92.0901L91.6594 92.0978L91.6501 92.1071C91.4885 92.2687 91.3813 92.4831 91.3596 92.7208L91.358 92.7332V92.7457L91.3564 92.7596V92.7721L91.3549 92.7845V92.7969V92.8109V124.624C91.3549 125.181 91.7992 125.625 92.3554 125.625H139.557C140.104 125.625 140.557 125.171 140.557 124.624V92.8109C140.557 92.2563 140.113 91.812 139.557 91.812C123.824 91.812 108.09 91.812 92.3554 91.812ZM110.094 118.687H136.518V122.028H110.094V118.687ZM115.764 112.715H136.518V116.055H115.764V112.715Z"/>
</mask>
<path d="M97.479 104.007H106.112C106.968 104.007 107.667 104.708 107.667 105.562V109.945C107.667 110.801 106.968 111.5 106.112 111.5H97.479C96.623 111.5 95.9239 110.801 95.9239 109.945V105.562C95.9239 104.708 96.623 104.007 97.479 104.007ZM130.835 77.6576L83.306 90.3936L87.9122 107.585V92.8109V92.7534V92.6975L87.9153 92.64L87.9169 92.5841L87.9247 92.4707L87.9293 92.4147C88.0241 91.349 88.4995 90.3874 89.2157 89.6712L89.2529 89.6339L89.2918 89.5982L89.3306 89.5609L89.3695 89.5251L89.4099 89.4894L89.4502 89.4537L89.4906 89.4195L89.531 89.3853L89.573 89.3512L89.6149 89.317L89.6569 89.2844L89.6988 89.2533L89.7423 89.2207L89.7858 89.1896L89.8293 89.1585L89.8728 89.129L89.9179 89.0995L89.9629 89.07L90.053 89.0125C90.0996 88.9845 90.1462 88.9581 90.1928 88.9317L90.2394 88.9053L90.2876 88.8804L90.3342 88.8556L90.4305 88.8074L90.4802 88.7841L90.5284 88.7624L90.5781 88.7391L90.6278 88.7189L90.6775 88.6971L90.7785 88.6583C91.2694 88.4703 91.7992 88.3678 92.3554 88.3678H133.705L130.835 77.6576ZM81.7182 84.4668L129.246 71.7308L128.746 69.8619C128.603 69.3259 128.056 69.0121 127.518 69.155L81.9233 81.3721C81.4137 81.5088 81.0471 82.0883 81.218 82.5994L81.7182 84.4668ZM137.265 88.3678H139.557C141.997 88.3678 144 90.3718 144 92.8109V124.624C144 127.073 142.005 129.068 139.557 129.068H92.3554C89.9179 129.068 87.9122 127.064 87.9122 124.624V119.377C87.5223 118.889 87.2364 118.351 87.0718 117.739L77.895 83.4881C77.1415 81.2277 78.782 78.655 81.0362 78.0491L126.631 65.8335C128.985 65.2028 131.438 66.6212 132.069 68.9748L137.265 88.3678ZM92.3554 91.812C92.2995 91.812 92.2451 91.8166 92.1923 91.8244L92.1425 91.8353L92.0835 91.8493L92.0478 91.8601L92.026 91.8695L92.0136 91.8726L91.9918 91.8819L91.9794 91.8865L91.9685 91.8912L91.9468 91.9005L91.9359 91.9052L91.9126 91.9161L91.9033 91.9223L91.8815 91.9331L91.8707 91.9394L91.8598 91.9456L91.8505 91.9518L91.8396 91.958L91.8287 91.9642L91.8194 91.9704L91.8085 91.9766L91.7992 91.9844L91.7883 91.9906L91.779 91.9984L91.7697 92.0046L91.7604 92.0124L91.7495 92.0186L91.7402 92.0264L91.7309 92.0341L91.7215 92.0419L91.7122 92.0497L91.7029 92.0574L91.6951 92.0652L91.6858 92.073L91.6765 92.0807L91.6672 92.0901L91.6594 92.0978L91.6501 92.1071C91.4885 92.2687 91.3813 92.4831 91.3596 92.7208L91.358 92.7332V92.7457L91.3564 92.7596V92.7721L91.3549 92.7845V92.7969V92.8109V124.624C91.3549 125.181 91.7992 125.625 92.3554 125.625H139.557C140.104 125.625 140.557 125.171 140.557 124.624V92.8109C140.557 92.2563 140.113 91.812 139.557 91.812C123.824 91.812 108.09 91.812 92.3554 91.812ZM110.094 118.687H136.518V122.028H110.094V118.687ZM115.764 112.715H136.518V116.055H115.764V112.715Z" fill="#414042" stroke="#F5F5F5" stroke-width="0.6" mask="url(#path-1-inside-1)"/>
<rect x="9.96484" y="43.0464" width="50.9759" height="19.116" fill="#F1BF46"/>
<path d="M61.0036 33.8596H9.37545C5.68772 33.8596 2 37.1253 2 41.4795V119.855C2 123.665 5.16091 127.475 9.37545 127.475H61.5304C65.2181 127.475 68.9059 124.209 68.9059 119.855V41.4795C68.379 37.1253 65.2181 33.8596 61.0036 33.8596ZM22.0191 118.222H10.9559V108.425H22.0191V118.222ZM22.0191 99.7168H10.9559V89.9198H22.0191V99.7168ZM22.0191 80.6672H10.9559V70.8702H22.0191V80.6672ZM40.4577 118.222H29.3945V108.425H40.4577V118.222ZM40.4577 99.7168H29.3945V89.9198H40.4577V99.7168ZM40.4577 80.6672H29.3945V70.8702H40.4577V80.6672ZM59.4231 118.222H48.36V108.425H59.4231V118.222ZM59.4231 99.7168H48.36V89.9198H59.4231V99.7168ZM59.4231 80.6672H48.36V70.8702H59.4231V80.6672ZM59.4231 61.0733H10.9559V43.1123H59.4231V61.0733Z" stroke="#414042" stroke-width="3"/>
</svg>
