<svg width="115" height="116" viewBox="0 0 115 116" fill="none" xmlns="http://www.w3.org/2000/svg">
<rect x="24" y="10" width="33" height="15" fill="#F1BF46"/>
<path d="M29 69L32 61.5H41C40 62.8333 37.7 66.2 36.5 69C35 72.5 35 75.5 35 79C35 82.5 38 87.5 42 91C46 94.5 51 95 54.5 95C57.3 95 59.6667 94 60.5 93.5V106H48L46 101L41 99L36.5 101L29 93.5L30.5 88.5L29 83.5L24 82V70.5L29 69Z" fill="#F1BF46"/>
<path d="M106.836 37.8958C106.901 37.2302 106.938 36.5572 106.938 35.875C106.938 25.314 98.8213 16.6226 88.5 15.6878V0.84375H9.21875C4.13553 0.84375 0 4.97928 0 10.0625V69.0625C0 74.1457 4.13553 78.2812 9.21875 78.2812H18.4375V63.5312H28.7035L28.8602 63.8355C28.1909 65.1445 27.6231 66.5218 27.1658 67.9452L22.125 69.5622V83.3147L27.1658 84.9298C27.6249 86.355 28.1909 87.7323 28.8602 89.0395L26.4412 93.7374L36.1652 103.461L40.8649 101.042C42.1739 101.712 43.5512 102.279 44.9746 102.737L46.5934 107.781H59.1881C60.0454 111.983 63.7679 115.156 68.2206 115.156H105.096C110.179 115.156 114.314 111.021 114.314 105.938V46.9375C114.312 42.4517 111.088 38.7125 106.836 37.8958ZM103.25 35.875C103.25 45.0237 95.8049 52.4688 86.6562 52.4688C77.5076 52.4688 70.0625 45.0237 70.0625 35.875C70.0625 26.7263 77.5076 19.2812 86.6562 19.2812C95.8049 19.2812 103.25 26.7263 103.25 35.875ZM103.25 48.7812V59.8438H70.0625V48.7812H71.0231C74.7456 53.2818 80.3709 56.1562 86.6562 56.1562C92.9416 56.1562 98.565 53.2818 102.289 48.7812H103.25ZM14.75 74.5938H9.21875C6.16919 74.5938 3.6875 72.1121 3.6875 69.0625V17.4338C5.22888 18.5917 7.14453 19.2812 9.21875 19.2812H14.75V74.5938ZM47.8914 99.7499L46.9382 99.4807C45.1203 98.9663 43.3853 98.2509 41.7831 97.3548L40.9202 96.8718L36.8732 98.9534L30.9529 93.0331L33.0363 88.9861L32.5514 88.1213C31.6553 86.5228 30.94 84.7878 30.4256 82.9681L30.1564 82.0148L25.8125 80.6247V72.2522L30.1564 70.8602L30.4256 69.9069C30.94 68.089 31.6553 66.354 32.5514 64.7518L33.0345 63.8889L32.8519 63.5312H37.8153C34.8377 67.121 33.1875 71.6308 33.1875 76.4375C33.1875 87.6198 42.2864 96.7188 53.4688 96.7188C55.3623 96.7188 57.2097 96.4403 59 95.9315V104.094H49.2816L47.8914 99.7499ZM59 92.0688C57.23 92.6957 55.377 93.0312 53.4688 93.0312C44.3201 93.0312 36.875 85.5862 36.875 76.4375C36.875 71.3617 39.1391 66.6988 43.0755 63.5312H59V92.0688ZM59 46.9375V59.8438H18.4375V15.5938H9.21875C6.16919 15.5938 3.6875 13.1121 3.6875 10.0625C3.6875 7.01294 6.16919 4.53125 9.21875 4.53125H84.8125V15.6878C74.4912 16.6226 66.375 25.314 66.375 35.875C66.375 36.5572 66.4119 37.2302 66.4764 37.8958C62.2247 38.7125 59 42.4517 59 46.9375ZM110.625 105.938C110.625 108.987 108.143 111.469 105.094 111.469H68.2188C65.1692 111.469 62.6875 108.987 62.6875 105.938V46.9375C62.6875 44.2401 64.6308 41.9962 67.1881 41.5113C67.5495 42.7596 68.0307 43.9562 68.6133 45.0938H66.375V63.5312H106.938V45.0938H104.699C105.284 43.9562 105.763 42.7596 106.124 41.5113C108.682 41.9962 110.625 44.2401 110.625 46.9375V105.938Z" fill="#414042"/>
<path d="M95.875 107.781H106.938V81.9688H95.875V107.781ZM99.5625 85.6562H103.25V104.094H99.5625V85.6562Z" fill="#414042"/>
<path d="M81.125 107.781H92.1875V96.7188H81.125V107.781ZM84.8125 100.406H88.5V104.094H84.8125V100.406Z" fill="#414042"/>
<path d="M66.375 107.781H77.4375V96.7188H66.375V107.781ZM70.0625 100.406H73.75V104.094H70.0625V100.406Z" fill="#414042"/>
<path d="M81.125 93.0312H92.1875V81.9688H81.125V93.0312ZM84.8125 85.6562H88.5V89.3438H84.8125V85.6562Z" fill="#414042"/>
<path d="M66.375 93.0312H77.4375V81.9688H66.375V93.0312ZM70.0625 85.6562H73.75V89.3438H70.0625V85.6562Z" fill="#414042"/>
<path d="M81.125 78.2812H92.1875V67.2188H81.125V78.2812ZM84.8125 70.9062H88.5V74.5938H84.8125V70.9062Z" fill="#414042"/>
<path d="M95.875 78.2812H106.938V67.2188H95.875V78.2812ZM99.5625 70.9062H103.25V74.5938H99.5625V70.9062Z" fill="#414042"/>
<path d="M66.375 78.2812H77.4375V67.2188H66.375V78.2812ZM70.0625 70.9062H73.75V74.5938H70.0625V70.9062Z" fill="#414042"/>
<path d="M22.125 26.6562H59V8.21875H22.125V26.6562ZM25.8125 11.9062H55.3125V22.9688H25.8125V11.9062Z" fill="#414042"/>
<path d="M22.125 30.3438H55.3125V34.0312H22.125V30.3438Z" fill="#414042"/>
<path d="M44.25 37.7188H47.9375V41.4062H44.25V37.7188Z" fill="#414042"/>
<path d="M51.625 37.7188H55.3125V41.4062H51.625V37.7188Z" fill="#414042"/>
<path d="M22.125 37.7188H40.5625V41.4062H22.125V37.7188Z" fill="#414042"/>
<path d="M22.125 45.0938H55.3125V48.7812H22.125V45.0938Z" fill="#414042"/>
<path d="M22.125 52.4688H55.3125V56.1562H22.125V52.4688Z" fill="#414042"/>
<path d="M95.5763 44.2546C95.9854 43.9062 96.0335 43.2947 95.683 42.8874C95.3325 42.4807 94.7174 42.4328 94.3084 42.7813C93.4925 43.473 92.5632 44.0093 91.5687 44.374C90.5765 44.7372 89.5182 44.928 88.44 44.928C85.9427 44.928 83.681 43.9217 82.0441 42.2943C80.4071 40.6677 79.3948 38.4194 79.3948 35.936C79.3948 33.4534 80.4071 31.2051 82.0441 29.5777C83.6803 27.9504 85.942 26.9441 88.44 26.9441C89.5205 26.9441 90.5809 27.1349 91.5747 27.4996C92.5706 27.865 93.5006 28.4035 94.318 29.0982C94.7271 29.4466 95.3429 29.3987 95.6934 28.9921C96.0439 28.5854 95.9957 27.9732 95.5867 27.6248C94.5892 26.7769 93.4569 26.1205 92.2475 25.677C91.0359 25.2328 89.748 25 88.4408 25C85.4032 25 82.6532 26.2244 80.6627 28.2031C78.6723 30.1818 77.4407 32.9164 77.4407 35.936C77.4407 38.9557 78.6723 41.6903 80.6627 43.669C82.6532 45.6477 85.404 46.8721 88.4408 46.8721C89.7457 46.8721 91.0322 46.64 92.2423 46.1973C93.448 45.7545 94.5789 45.0996 95.5763 44.2546Z" fill="#414042" stroke="#414042" stroke-miterlimit="10" stroke-linecap="square"/>
<path d="M75.9774 32.9832C75.4372 32.9832 75 33.4185 75 33.9556C75 34.4926 75.438 34.9273 75.9774 34.9273H89.1518C89.692 34.9273 90.1299 34.4919 90.1299 33.9556C90.1299 33.4193 89.692 32.9832 89.1518 32.9832H75.9774Z" fill="#414042" stroke="#414042" stroke-miterlimit="10" stroke-linecap="square"/>
<path d="M75.9774 37.5913C75.4372 37.5913 75 38.0267 75 38.5637C75 39.1008 75.438 39.5354 75.9774 39.5354H89.1518C89.692 39.5354 90.1299 39.1 90.1299 38.5637C90.1299 38.0267 89.692 37.5913 89.1518 37.5913H75.9774Z" fill="#414042" stroke="#414042" stroke-miterlimit="10" stroke-linecap="square"/>
</svg>
